<svg width="48" height="48" viewBox="0 0 48 48" fill="none" xmlns="http://www.w3.org/2000/svg">
<path d="M8.45579 36.7499C8.50377 36.9471 8.59079 37.1327 8.71169 37.2957C8.8326 37.4587 8.98495 37.5958 9.15974 37.6989C9.33452 37.8021 9.52821 37.8691 9.72934 37.8961C9.93048 37.9231 10.135 37.9095 10.3308 37.8562C19.2689 35.3813 28.7114 35.3813 37.6495 37.8562C37.8453 37.9095 38.0499 37.9231 38.251 37.8961C38.4521 37.8691 38.6458 37.8021 38.8206 37.6989C38.9954 37.5958 39.1477 37.4587 39.2686 37.2957C39.3895 37.1327 39.4766 36.9471 39.5245 36.7499L44.3058 16.4437C44.3714 16.1719 44.3598 15.8871 44.2722 15.6216C44.1846 15.3561 44.0245 15.1203 43.8101 14.9409C43.5956 14.7615 43.3352 14.6457 43.0584 14.6064C42.7815 14.5671 42.4992 14.606 42.2433 14.7187L32.7558 18.9374C32.412 19.0888 32.0244 19.1074 31.6677 18.9897C31.311 18.8719 31.0106 18.6262 30.8245 18.2999L25.312 8.36244C25.1823 8.12799 24.9922 7.93256 24.7614 7.79648C24.5305 7.66039 24.2675 7.58862 23.9995 7.58862C23.7316 7.58862 23.4685 7.66039 23.2377 7.79648C23.0069 7.93256 22.8168 8.12799 22.687 8.36244L17.1745 18.2999C16.9884 18.6262 16.6881 18.8719 16.3314 18.9897C15.9747 19.1074 15.5871 19.0888 15.2433 18.9374L5.75579 14.7187C5.49988 14.606 5.21757 14.5671 4.94073 14.6064C4.66388 14.6457 4.40352 14.7615 4.18903 14.9409C3.97455 15.1203 3.81447 15.3561 3.72687 15.6216C3.63928 15.8871 3.62765 16.1719 3.69329 16.4437L8.45579 36.7499Z" stroke="#121314" stroke-width="2.5" stroke-linecap="round" stroke-linejoin="round"/>
<path d="M18 30.3188C21.9884 29.8876 26.0116 29.8876 30 30.3188" stroke="#121314" stroke-width="2.5" stroke-linecap="round" stroke-linejoin="round"/>
</svg>
