<svg width="17" height="16" viewBox="0 0 17 16" fill="none" xmlns="http://www.w3.org/2000/svg">
<path d="M6.0075 14.5431C12.0609 14.5431 15.3712 9.51844 15.3712 5.16121C15.3712 5.01851 15.3683 4.87646 15.3619 4.73501C16.006 4.26803 16.5619 3.68983 17.0035 3.02752C16.4138 3.29019 15.7793 3.46698 15.1136 3.54669C15.7931 3.13848 16.3147 2.49268 16.5608 1.7229C15.9148 2.10687 15.208 2.37756 14.471 2.52328C13.8705 1.88235 13.0155 1.48148 12.0688 1.48148C10.2514 1.48148 8.77758 2.95817 8.77758 4.7784C8.77758 5.03719 8.80649 5.28882 8.86296 5.53026C6.12774 5.39237 3.70235 4.08026 2.07915 2.08513C1.78679 2.58834 1.63302 3.16025 1.63353 3.74245C1.63353 4.88646 2.21452 5.89635 3.09805 6.48719C2.57543 6.4712 2.06428 6.32976 1.60758 6.07477C1.60709 6.08862 1.60709 6.1021 1.60709 6.11689C1.60709 7.71378 2.74148 9.04708 4.24734 9.34919C3.96452 9.42636 3.67268 9.46538 3.37955 9.46521C3.16786 9.46521 2.96155 9.44435 2.76104 9.40578C3.18002 10.7159 4.39493 11.6693 5.83536 11.696C4.70896 12.5805 3.29005 13.1074 1.7479 13.1074C1.48556 13.1076 1.22344 13.0924 0.962891 13.0617C2.41939 13.9971 4.14884 14.5429 6.00767 14.5429" fill="white"/>
</svg>
